<?xml version="1.0" standalone="no"?>
<!DOCTYPE svg PUBLIC "-//W3C//DTD SVG 20010904//EN"
 "http://www.w3.org/TR/2001/REC-SVG-20010904/DTD/svg10.dtd">
<svg version="1.0" xmlns="http://www.w3.org/2000/svg"
 width="800.000000pt" height="350.000000pt" viewBox="0 0 800.000000 350.000000"
 preserveAspectRatio="xMidYMid meet">

<g transform="translate(0.000000,350.000000) scale(0.100000,-0.100000)"
fill="#000000" stroke="none">
<path d="M145 3476 c-60 -28 -97 -66 -124 -126 -20 -45 -21 -57 -21 -1600 l0
-1555 24 -50 c28 -60 66 -97 126 -124 l45 -21 3805 0 3805 0 50 24 c60 28 97
66 124 126 20 45 21 57 21 1600 0 1543 -1 1555 -21 1600 -27 60 -64 98 -124
126 l-50 24 -3805 0 -3805 0 -50 -24z m1885 -1116 c0 -39 -1 -40 -35 -40 -33
0 -35 -2 -35 -35 0 -33 -2 -35 -35 -35 -33 0 -35 -2 -35 -35 0 -33 2 -35 35
-35 33 0 35 -2 35 -35 0 -33 2 -35 35 -35 33 0 35 2 35 35 0 33 2 35 35 35 33
0 35 2 35 35 0 34 1 35 40 35 l40 0 0 -105 0 -105 -35 0 c-33 0 -35 -2 -35
-35 l0 -35 -145 0 -145 0 0 -40 c0 -39 -1 -40 -35 -40 -33 0 -35 -2 -35 -35 0
-34 -1 -35 -38 -35 -35 0 -37 -2 -37 -32 0 -31 -2 -33 -37 -36 l-38 -3 0 -145
0 -144 -35 0 c-33 0 -35 -2 -35 -35 l0 -35 -110 0 -110 0 0 35 c0 33 2 35 34
35 33 0 35 2 38 38 3 35 5 37 41 40 34 3 37 6 37 33 0 24 -4 29 -25 30 -14 1
-31 2 -37 3 -7 0 -14 18 -16 39 -3 33 -6 37 -32 37 -26 0 -29 -4 -32 -37 -3
-36 -5 -38 -38 -39 -33 0 -35 -2 -38 -37 -3 -35 -5 -37 -38 -37 l-34 0 0 110
0 110 35 0 c33 0 35 2 35 35 l0 34 143 3 142 3 3 38 c3 35 5 37 38 37 32 0 34
2 34 35 0 33 2 35 35 35 33 0 35 2 35 35 0 33 2 35 34 35 23 0 36 6 40 17 4 9
6 74 5 143 l-1 125 36 3 c34 3 36 5 36 38 l0 34 105 0 105 0 0 -40z m3713 -39
c44 -22 76 -54 90 -93 6 -16 -2 -18 -87 -18 -65 0 -103 5 -125 16 -19 10 -42
13 -60 9 -30 -6 -58 -31 -48 -41 3 -3 49 -9 102 -14 116 -11 168 -26 200 -56
55 -51 13 -155 -77 -195 -44 -19 -71 -23 -153 -23 -110 -1 -159 11 -206 51
-26 22 -59 71 -59 88 0 3 42 5 93 5 65 -1 98 -5 111 -15 11 -8 36 -15 56 -15
38 0 81 23 68 36 -5 4 -60 13 -123 20 -121 14 -163 29 -189 66 -22 32 -20 65
9 113 41 70 112 96 256 91 75 -2 106 -8 142 -25z m-2633 -31 l0 -50 -155 0
-155 0 0 -35 0 -35 130 0 130 0 0 -40 0 -40 -130 0 -130 0 0 -90 0 -90 -90 0
-90 0 0 215 0 215 245 0 245 0 0 -50z m410 -90 c63 -77 118 -140 123 -140 4 0
7 63 7 140 l0 140 90 0 90 0 0 -215 0 -215 -108 0 -109 0 -119 142 -119 142
-3 -142 -3 -142 -89 0 -90 0 0 215 0 215 108 -1 107 0 115 -139z m889 7 c47
-72 109 -169 138 -214 l53 -83 -90 0 -91 0 -20 35 -21 35 -138 0 -138 0 -21
-35 -20 -35 -90 0 -90 0 137 215 137 215 85 0 85 0 84 -133z m741 83 l0 -50
-155 0 -155 0 0 -35 0 -35 130 0 130 0 0 -40 0 -40 -130 0 -130 0 0 -90 0 -90
-90 0 -90 0 0 215 0 215 245 0 245 0 0 -50z m120 -14 c0 -68 -7 -80 -53 -91
-23 -6 -27 -4 -27 14 0 12 6 21 15 21 8 0 19 9 25 20 9 18 8 20 -15 20 -23 0
-25 4 -25 40 l0 40 40 0 40 0 0 -64z m-2421 -541 c86 -11 141 -63 141 -135 0
-106 -109 -158 -303 -144 l-88 7 3 136 3 136 65 6 c66 5 101 4 179 -6z m919
-1 c26 -4 32 -9 32 -31 0 -24 -2 -25 -36 -18 -20 3 -74 6 -121 7 -114 0 -138
-16 -138 -92 0 -46 3 -55 28 -74 24 -18 42 -21 110 -20 45 0 99 4 120 8 35 6
37 5 37 -18 0 -21 -6 -26 -37 -33 -68 -14 -215 -8 -250 10 -53 28 -73 62 -73
127 0 61 19 98 63 122 43 22 159 28 265 12z m441 -12 c48 -25 73 -74 68 -134
-9 -100 -60 -132 -212 -132 -87 0 -105 3 -142 23 -53 30 -67 63 -64 148 2 47
46 92 106 109 66 18 195 11 244 -14z m1886 4 c53 -23 77 -68 72 -140 -3 -51
-8 -63 -34 -86 -73 -65 -273 -65 -346 0 -26 23 -31 35 -34 86 -6 90 28 135
117 154 58 12 180 4 225 -14z m903 8 c37 -5 42 -8 42 -30 0 -23 -2 -24 -42
-17 -82 15 -212 10 -241 -10 -30 -20 -35 -42 -11 -51 9 -3 75 -6 148 -6 152 0
176 -9 176 -65 0 -44 -43 -81 -108 -92 -56 -10 -169 -9 -234 1 -42 6 -48 10
-48 32 0 24 1 25 53 17 72 -11 216 -8 250 5 30 13 37 46 11 56 -9 3 -76 6
-150 6 -121 0 -136 2 -154 20 -24 24 -26 57 -4 88 35 51 144 66 312 46z
m-3618 -19 l0 -25 -135 0 -135 0 0 -35 0 -35 125 0 c118 0 125 -1 125 -20 0
-19 -7 -20 -125 -20 l-125 0 0 -35 0 -35 135 0 135 0 0 -25 0 -25 -165 0 -165
0 0 140 0 140 165 0 165 0 0 -25z m1263 11 c57 -21 77 -43 77 -87 0 -29 -6
-42 -26 -58 -15 -12 -33 -21 -40 -21 -8 0 -14 -4 -14 -10 0 -5 6 -10 14 -10
20 0 76 -49 76 -66 0 -22 -57 -18 -69 5 -15 28 -64 42 -168 48 l-93 6 0 -37
c0 -33 -2 -36 -30 -36 l-30 0 0 140 0 140 133 0 c85 -1 146 -6 170 -14z m404
2 c6 -7 40 -70 77 -140 l67 -128 -34 0 c-26 0 -36 5 -45 25 -11 25 -13 25
-132 25 -119 0 -121 0 -132 -25 -9 -19 -19 -25 -45 -25 l-34 0 67 128 c37 70
72 133 77 140 6 7 33 12 67 12 34 0 61 -5 67 -12z m523 -13 c0 -24 -2 -25 -70
-25 l-70 0 0 -115 0 -115 -30 0 -30 0 0 115 0 115 -70 0 c-68 0 -70 1 -70 25
l0 25 170 0 170 0 0 -25z m120 -115 l0 -140 -30 0 -30 0 0 140 0 140 30 0 30
0 0 -140z m746 28 c49 -62 94 -112 99 -111 6 2 11 50 13 113 l3 110 29 0 30 0
0 -140 0 -140 -57 0 -58 0 -90 115 c-49 63 -94 113 -100 111 -6 -1 -11 -51
-13 -114 l-3 -112 -29 0 -30 0 0 140 0 140 58 0 58 0 90 -112z m-2360 -1009
c22 -18 17 -66 -8 -83 -46 -32 -138 -9 -138 35 0 20 22 50 43 59 27 12 83 5
103 -11z m-1121 -5 c23 -23 15 -66 -15 -81 -14 -7 -51 -13 -82 -13 l-58 0 0
55 0 55 69 0 c51 0 74 -4 86 -16z m225 6 c0 -5 -18 -10 -40 -10 -22 0 -40 -4
-40 -10 0 -5 16 -10 35 -10 19 0 35 -4 35 -10 0 -5 -16 -10 -35 -10 -19 0 -35
-4 -35 -10 0 -5 20 -10 45 -10 33 0 45 -4 45 -15 0 -12 -14 -15 -70 -15 l-70
0 0 55 0 55 65 0 c37 0 65 -4 65 -10z m140 -20 c18 -44 28 -45 44 -5 10 24 21
35 35 35 27 0 26 -2 -6 -61 -39 -68 -62 -66 -101 6 l-30 55 23 0 c16 0 26 -9
35 -30z m320 20 c0 -5 -20 -10 -45 -10 -25 0 -45 -4 -45 -10 0 -5 16 -10 35
-10 19 0 35 -4 35 -10 0 -5 -16 -10 -35 -10 -19 0 -35 -4 -35 -10 0 -5 20 -10
45 -10 33 0 45 -4 45 -15 0 -12 -14 -15 -65 -15 l-65 0 0 55 0 55 65 0 c37 0
65 -4 65 -10z m130 -30 l0 -40 45 0 c33 0 45 -4 45 -15 0 -12 -14 -15 -65 -15
l-65 0 0 55 c0 48 2 55 20 55 17 0 20 -7 20 -40z m548 31 c8 -4 12 -19 10 -32
-3 -20 -11 -25 -55 -32 -35 -6 -53 -13 -53 -23 0 -8 -9 -14 -20 -14 -18 0 -20
7 -20 55 l0 55 63 0 c34 0 68 -4 75 -9z m178 -26 c10 -19 22 -35 25 -35 4 0
17 16 29 35 17 27 28 35 51 35 29 0 29 -1 29 -55 0 -48 -3 -55 -19 -55 -16 0
-20 8 -23 38 l-3 37 -23 -37 c-30 -48 -51 -48 -79 0 l-22 37 -1 -37 c0 -34 -3
-38 -25 -38 -24 0 -25 3 -25 55 l0 55 33 0 c28 0 37 -6 53 -35z m354 25 c0 -5
-18 -10 -40 -10 -22 0 -40 -4 -40 -10 0 -5 16 -10 35 -10 19 0 35 -4 35 -10 0
-5 -16 -10 -35 -10 -19 0 -35 -4 -35 -10 0 -5 20 -10 45 -10 33 0 45 -4 45
-15 0 -12 -14 -15 -70 -15 l-70 0 0 55 0 55 65 0 c37 0 65 -4 65 -10z m185
-27 l34 -38 1 38 c0 30 4 37 20 37 18 0 20 -7 20 -55 0 -53 -1 -55 -26 -55
-18 0 -37 12 -60 38 l-33 37 -1 -37 c0 -34 -3 -38 -25 -38 -24 0 -25 3 -25 55
0 54 0 55 30 55 22 0 39 -10 65 -37z m295 27 c0 -5 -9 -10 -20 -10 -17 0 -20
-7 -20 -45 0 -41 -2 -45 -25 -45 -23 0 -25 4 -25 45 0 41 -2 45 -25 45 -14 0
-25 5 -25 10 0 6 30 10 70 10 40 0 70 -4 70 -10z m-588 -117 c-358 -2 -946 -2
-1305 0 -358 1 -65 2 653 2 718 0 1011 -1 652 -2z"/>
<path d="M4204 2158 c-16 -29 -30 -56 -32 -60 -2 -5 28 -8 67 -8 39 0 71 2 71
5 0 12 -62 115 -69 115 -4 0 -21 -24 -37 -52z"/>
<path d="M2670 1599 l0 -91 98 4 c107 4 134 15 153 62 10 23 10 34 -2 55 -24
43 -73 61 -166 61 l-83 0 0 -91z"/>
<path d="M3992 1691 c-56 -15 -73 -38 -70 -94 2 -40 8 -54 29 -69 51 -38 203
-33 244 8 37 37 30 102 -15 136 -29 21 -136 32 -188 19z"/>
<path d="M5880 1689 c-47 -13 -70 -43 -70 -91 0 -75 71 -109 196 -93 73 9 104
37 104 95 0 26 -7 47 -19 59 -37 37 -134 51 -211 30z"/>
<path d="M4400 1634 l0 -56 109 4 c91 3 113 7 131 23 11 10 20 28 18 39 -5 34
-45 46 -155 46 l-103 0 0 -56z"/>
<path d="M4953 1678 c-6 -7 -22 -37 -37 -65 l-26 -53 90 0 91 0 -33 63 c-34
63 -63 82 -85 55z"/>
<path d="M3992 601 c-23 -14 -10 -46 19 -49 30 -4 46 22 28 44 -13 16 -28 17
-47 5z"/>
<path d="M2850 579 c0 -28 2 -30 32 -27 57 5 48 57 -9 58 -19 0 -23 -5 -23
-31z"/>
<path d="M4220 595 c0 -12 8 -16 33 -13 17 2 32 8 32 13 0 6 -15 11 -32 13
-25 3 -33 -1 -33 -13z"/>
</g>
</svg>
